<?xml version="1.0" encoding="UTF-8"?>
<svg version="1.1" xmlns="http://www.w3.org/2000/svg" width="1100" height="308">
<path d="M0 0 C363 0 726 0 1100 0 C1100 101.64 1100 203.28 1100 308 C737 308 374 308 0 308 C0 206.36 0 104.72 0 0 Z " fill="#FEFEFE" transform="translate(0,0)"/>
<path d="M0 0 C11.94188661 9.48792939 21.46778571 23.30307003 23.29052734 38.73193359 C24.47538813 57.80443749 21.85258694 74.23201025 8.85302734 89.04443359 C7.3490235 90.62313962 5.8296035 92.18739972 4.29052734 93.73193359 C3.74912109 94.29654297 3.20771484 94.86115234 2.64990234 95.44287109 C-8.84438606 106.41469184 -24.84753372 110.24367054 -40.22338867 110.15405273 C-56.84862983 109.67779665 -70.1180264 102.30353149 -81.70947266 90.73193359 C-82.35916016 90.09384766 -83.00884766 89.45576172 -83.67822266 88.79833984 C-94.05778822 77.84971915 -98.29497847 63.63284775 -98.14697266 48.85693359 C-98.13939941 47.79772705 -98.13182617 46.73852051 -98.12402344 45.6472168 C-97.96369126 38.05133361 -97.1199884 31.60642144 -93.70947266 24.73193359 C-93.108125 23.38035156 -93.108125 23.38035156 -92.49462891 22.00146484 C-85.68094764 7.99885609 -73.51197016 -3.13562951 -58.95947266 -8.64306641 C-57.21546561 -9.2037287 -55.46585144 -9.74745491 -53.70947266 -10.26806641 C-53.05849609 -10.49236328 -52.40751953 -10.71666016 -51.73681641 -10.94775391 C-34.30583321 -16.35098861 -14.25261883 -10.57242248 0 0 Z " fill="#FDFEFE" transform="translate(695.70947265625,68.26806640625)"/>
<path d="M0 0 C14.03109272 9.72743823 24.13909557 23.17911576 27.2890625 40.05859375 C30.10270795 59.1103117 25.30028377 75.7560592 14.1015625 91.24609375 C5.15788209 102.06567323 -8.84811511 110.58136361 -22.8984375 112.24609375 C-43.30589731 113.62324431 -58.52137655 110.4423238 -74.58203125 97 C-86.04715263 86.37251306 -93.30012641 72.04835007 -94.2734375 56.375 C-94.88444339 39.48596551 -90.77972561 24.83085231 -79.4609375 11.93359375 C-72.59312678 4.70010925 -65.95364997 -0.43265204 -56.8984375 -4.75390625 C-56.03992188 -5.1715625 -55.18140625 -5.58921875 -54.296875 -6.01953125 C-37.14284891 -13.03933443 -15.48946566 -9.3730055 0 0 Z " fill="#FEFEFE" transform="translate(483.8984375,145.75390625)"/>
<path d="M0 0 C12.19755239 9.78911848 21.72259657 22.25978397 24.453125 37.96875 C26.32230776 55.90480698 23.81269498 73.20096949 12.3125 87.66015625 C10.10078066 90.18407406 7.82365508 92.5940317 5.453125 94.96875 C4.88851562 95.54496094 4.32390625 96.12117188 3.7421875 96.71484375 C-8.25890431 107.98416167 -25.27291842 111.64407373 -41.2109375 111.30859375 C-57.4965834 110.42501863 -71.49009905 101.47913727 -82.546875 89.96875 C-94.50276505 75.58905378 -97.80746639 59.60510197 -96.78955078 41.32275391 C-95.19974166 25.90128552 -85.89294954 11.63044428 -74.09765625 1.9609375 C-51.48783558 -14.43739397 -23.3789254 -16.35090488 0 0 Z " fill="#FEFEFE" transform="translate(275.546875,55.03125)"/>
<path d="M0 0 C14.06333829 11.85151914 21.26263336 26.86798728 22.9765625 45.046875 C23.47386492 61.19611674 17.42243518 76.22135167 6.98828125 88.39453125 C-4.76120427 100.60547692 -20.61774354 107.25821938 -37.44921875 107.89453125 C-54.03412536 107.58234477 -68.90532105 100.91582784 -80.56640625 89.375 C-93.16919749 76.02334725 -97.96156812 60.2929199 -97.5703125 42.28125 C-97.26648486 35.91095523 -95.77836353 30.3716694 -93.26171875 24.51953125 C-92.79894531 23.44316406 -92.33617187 22.36679688 -91.859375 21.2578125 C-84.75061812 6.57101651 -72.48571385 -4.05507306 -57.17578125 -9.59765625 C-54.5457968 -10.35422712 -51.94908862 -10.96942792 -49.26171875 -11.48046875 C-48.08609375 -11.70734375 -46.91046875 -11.93421875 -45.69921875 -12.16796875 C-29.22532684 -13.66559529 -13.21009554 -10.43154417 0 0 Z " fill="#FEFEFE" transform="translate(910.26171875,163.48046875)"/>
<path d="M0 0 C1.56578159 1.36872744 3.10684004 2.76613547 4.625 4.1875 C5.99398437 5.42113281 5.99398437 5.42113281 7.390625 6.6796875 C21.17046541 19.66888133 31.29598779 38.42524402 32.05859375 57.640625 C32.08235255 59.9061258 32.08305341 62.17196786 32.0625 64.4375 C32.05347656 65.62899658 32.04445313 66.82049316 32.03515625 68.0480957 C31.65630641 87.3418129 24.72673863 104.90835848 11.625 119.1875 C10.96113281 119.94289063 10.29726563 120.69828125 9.61328125 121.4765625 C-2.40701653 134.40782555 -20.64338471 144.1169542 -38.39526367 145.40698242 C-61.53571228 146.23040607 -82.30471103 142.70572083 -100.375 127.1875 C-101.01308594 126.69121094 -101.65117188 126.19492187 -102.30859375 125.68359375 C-116.8316543 113.93491904 -124.42492351 97.00531815 -128.375 79.1875 C-128.56707031 78.39988281 -128.75914062 77.61226563 -128.95703125 76.80078125 C-132.50066901 54.64476575 -125.86878698 33.78261238 -113.0625 15.8125 C-99.72894828 -0.97369203 -80.89272816 -12.61723153 -59.4765625 -15.52734375 C-38.42465198 -17.46284686 -17.03232836 -13.06258883 0 0 Z M-92.375 24.1875 C-93.01050781 24.78949219 -93.64601563 25.39148438 -94.30078125 26.01171875 C-104.93960493 36.88643653 -108.79524706 52.07198006 -108.74072266 66.82226562 C-108.38749308 83.60877212 -101.31480619 97.56608864 -89.375 109.1875 C-77.30556175 120.20742188 -62.19002313 126.00504892 -45.82421875 125.53125 C-28.74227679 123.82885941 -14.06884814 116.96827633 -2.375 104.1875 C7.39951817 91.5620807 12.98356549 76.19767176 11.625 60.1875 C9.1490708 44.03070654 2.58209641 28.7299628 -10.375 18.1875 C-36.70409567 -0.86875118 -69.517982 1.08775261 -92.375 24.1875 Z " fill="#6DBBD6" transform="translate(921.375,145.8125)"/>
<path d="M0 0 C10.80278884 9.06963113 18.32072038 20.89812443 23.3828125 33.98046875 C24.0015625 35.47126953 24.0015625 35.47126953 24.6328125 36.9921875 C30.62544238 53.90888226 29.29841272 74.55900189 22.3828125 90.98046875 C22.10405273 91.65754883 21.82529297 92.33462891 21.53808594 93.03222656 C13.07113396 113.01348312 -2.0420793 127.82002201 -22.03515625 136.45703125 C-42.41726209 144.19363524 -64.89535343 144.39834131 -84.9921875 135.73046875 C-106.78460678 125.82196931 -120.40531267 108.946685 -129.71484375 87.4453125 C-136.67037115 68.74577904 -134.58971995 47.28943465 -127.11328125 29.1640625 C-117.280341 8.24018181 -101.10415325 -6.64325647 -79.6171875 -15.01953125 C-50.9459867 -24.04565002 -23.53194208 -18.15822993 0 0 Z M-99.296875 21.15625 C-111.31452773 35.78379701 -115.40778266 52.34444615 -113.6171875 70.98046875 C-111.51016203 85.00761342 -104.48415013 96.11350612 -94.6171875 105.98046875 C-94.04097656 106.55667969 -93.46476562 107.13289063 -92.87109375 107.7265625 C-88.06190522 112.16670059 -82.49707838 115.17451546 -76.6171875 117.98046875 C-75.75867188 118.398125 -74.90015625 118.81578125 -74.015625 119.24609375 C-60.10570959 124.93833579 -42.51965901 123.34145735 -28.8046875 117.85546875 C-14.27975443 111.58084401 -2.94976858 100.49906928 3.3828125 85.98046875 C9.24506221 69.74654647 10.42129326 54.13388582 4.12890625 37.70703125 C-4.1624561 20.13024677 -16.92374917 10.51589377 -34.1640625 2.84765625 C-57.57491307 -5.42815398 -82.88846449 3.93005698 -99.296875 21.15625 Z " fill="#6DBAD6" transform="translate(503.6171875,136.01953125)"/>
<path d="M0 0 C15.61239132 13.03295275 25.5503578 32.95611867 27.43359375 53.0625 C28.65430544 75.59042426 23.3168003 96.79996192 8.22167969 114.11816406 C-7.12653852 131.02556634 -27.1363088 140.67300886 -49.8984375 142.30078125 C-73.1687853 142.7970064 -93.69598617 134.27071643 -110.69140625 118.375 C-126.44423834 101.87819432 -134.09935122 80.68618001 -133.7734375 58.1171875 C-133.21488965 39.99008237 -127.06323532 24.0372864 -115.56640625 10.0625 C-114.67888672 8.91394531 -114.67888672 8.91394531 -113.7734375 7.7421875 C-101.97745696 -6.69468421 -83.17231935 -16.60140844 -64.75024414 -18.73901367 C-40.39624173 -20.95251887 -19.42271491 -14.66311506 0 0 Z M-101.61328125 23.3046875 C-112.70364757 38.96428474 -116.23435325 56.49899569 -113.1796875 75.46337891 C-109.72927172 90.43473297 -99.95739139 103.91937176 -87.203125 112.390625 C-72.57664236 121.47755046 -56.54188707 124.7431243 -39.55859375 121.3671875 C-27.0849339 118.10484569 -17.63404962 112.11461658 -8.56640625 103.0625 C-7.91671875 102.42441406 -7.26703125 101.78632813 -6.59765625 101.12890625 C5.42173436 88.45055782 8.15293989 72.88026226 7.7109375 56.09765625 C6.9544647 39.12567097 -1.26346472 25.355375 -13.56640625 14.0625 C-17.08677011 11.40905567 -20.7049826 9.18063069 -24.56640625 7.0625 C-25.20707031 6.66546875 -25.84773437 6.2684375 -26.5078125 5.859375 C-51.70884153 -8.72782971 -83.91246508 2.6537353 -101.61328125 23.3046875 Z " fill="#3681A4" transform="translate(711.56640625,55.9375)"/>
<path d="M0 0 C1.08539063 -0.01160156 2.17078125 -0.02320312 3.2890625 -0.03515625 C23.68687878 0.03786696 43.62882388 9.05857894 58.11328125 23.3046875 C74.01088586 39.76075597 81.64617072 60.57778718 81.27709961 83.30493164 C80.71634149 100.30938431 75.05536137 117.19536465 64 130.375 C63.27296875 131.27347656 62.5459375 132.17195312 61.796875 133.09765625 C49.4609574 147.56251447 31.89091471 157.61249194 13 160.375 C-12.43878029 161.96615829 -34.15468535 157.69017269 -53.66918945 140.52416992 C-69.6018652 125.86955697 -78.96447382 105.3971383 -80.203125 83.83984375 C-80.50495862 61.12686392 -72.9383584 40.12013787 -57.26171875 23.51953125 C-50.00940496 16.64298501 -42.4557276 11.25347469 -33.4375 6.9375 C-32.7782251 6.61966553 -32.1189502 6.30183105 -31.43969727 5.97436523 C-21.22355465 1.35055674 -11.14300192 -0.11910572 0 0 Z M-48.0390625 42.85546875 C-51.8306415 48.05880589 -54.73531038 53.35679704 -57 59.375 C-57.2990625 60.07367188 -57.598125 60.77234375 -57.90625 61.4921875 C-62.85612379 74.73768312 -61.22169034 92.52775054 -55.55810547 105.22167969 C-48.01133242 121.07027321 -35.67322215 132.66705134 -19.12817383 138.77148438 C-2.51468041 144.29514191 14.32246636 141.65385491 30 134.375 C44.45145996 126.09637794 54.16414363 113.50812305 59.5 97.875 C63.56295568 81.67783586 62.27518225 64.77946166 54.203125 50.109375 C44.85076881 35.22042394 31.39438506 24.71010207 14.3046875 20.2265625 C-9.44179269 14.97272231 -32.70220632 24.19856516 -48.0390625 42.85546875 Z " fill="#3681A4" transform="translate(239,24.625)"/>
<path d="M0 0 C3.73716178 0.87853713 5.13010387 2.29902003 7.16015625 5.5078125 C7.90764483 8.68751391 7.99086923 11.33964507 7.16015625 14.5078125 C5.34886976 16.89166372 3.77143336 17.88882069 1.16015625 19.5078125 C0.50015625 19.5078125 -0.15984375 19.5078125 -0.83984375 19.5078125 C-0.83984375 33.0378125 -0.83984375 46.5678125 -0.83984375 60.5078125 C3.12015625 60.5078125 7.08015625 60.5078125 11.16015625 60.5078125 C43.64352553 62.80115891 68.01644315 82.45268719 89.16015625 105.5078125 C92.11154467 108.9437957 94.86101918 112.51745246 97.58203125 116.13671875 C100.33273932 119.78833701 103.29014236 123.24310556 106.28515625 126.6953125 C109.81578835 130.76726331 113.28523312 134.86688838 116.66015625 139.0703125 C136.94086519 163.9803137 161.36603178 184.18479712 194.16015625 188.5078125 C222.80985426 190.90700213 250.36023555 184.72645403 272.79931641 166.15087891 C276.38722219 163.06911434 279.78320496 159.81817602 283.16015625 156.5078125 C284.03414062 155.6725 284.908125 154.8371875 285.80859375 153.9765625 C290.85797357 149.06701166 295.41558397 143.92386496 299.8125 138.42578125 C302.37598057 135.23955832 305.00855326 132.1206037 307.66015625 129.0078125 C311.01509185 125.06171412 314.33238675 121.09137675 317.59765625 117.0703125 C338.73241086 91.16319395 363.95493235 65.07692399 398.97265625 60.8203125 C405.35776259 60.43566754 411.76347471 60.5078125 418.16015625 60.5078125 C418.16015625 46.9778125 418.16015625 33.4478125 418.16015625 19.5078125 C415.68515625 18.5178125 415.68515625 18.5178125 413.16015625 17.5078125 C410.30935732 14.9519238 410.15141363 13.43896435 409.66015625 9.5703125 C409.812117 6.31835245 410.23538528 5.39132884 412.09765625 2.5078125 C415.66850082 0.17583237 417.80521644 -0.23486315 422 0.03125 C425.70718433 0.84910983 427.13329673 2.36944937 429.16015625 5.5078125 C430.1330854 9.81649873 429.66865976 12.65425304 427.41015625 16.4453125 C425.16015625 18.5078125 425.16015625 18.5078125 421.16015625 19.5078125 C421.16015625 33.0378125 421.16015625 46.5678125 421.16015625 60.5078125 C425.12015625 60.5078125 429.08015625 60.5078125 433.16015625 60.5078125 C468.37211299 66.14969058 494.16214992 90.09341337 515.80273438 116.83251953 C523.33663358 126.13065196 530.86542853 135.39214161 539.0078125 144.16796875 C540.91196442 146.2379996 542.72783552 148.35376357 544.53515625 150.5078125 C564.01004943 172.70013263 589.95581692 186.13941243 619.47265625 188.3203125 C621.36777047 188.40175179 623.26361705 188.47275043 625.16015625 188.5078125 C625.16015625 189.4978125 625.16015625 190.4878125 625.16015625 191.5078125 C607.47365095 192.44691898 591.90456655 188.46798724 576.16015625 180.5078125 C574.57267578 179.70537109 574.57267578 179.70537109 572.953125 178.88671875 C556.7044194 170.00636458 539.97731179 154.53626559 529.16015625 139.5078125 C529.16015625 138.8478125 529.16015625 138.1878125 529.16015625 137.5078125 C528.50015625 137.5078125 527.84015625 137.5078125 527.16015625 137.5078125 C525.45844286 135.50113256 523.86481262 133.48276784 522.28515625 131.3828125 C516.50158565 123.85780666 510.41228339 116.64582375 504.16015625 109.5078125 C502.98646484 108.16396484 502.98646484 108.16396484 501.7890625 106.79296875 C499.60996911 104.33420562 497.39852445 101.91270291 495.16015625 99.5078125 C494.33257813 98.61449219 493.505 97.72117187 492.65234375 96.80078125 C475.20467002 78.61552364 450.84721202 64.7734283 425.19140625 64.2421875 C422.68098969 64.23693008 420.17053059 64.24233229 417.66015625 64.2578125 C415.77876953 64.24621094 415.77876953 64.24621094 413.859375 64.234375 C406.69080303 64.24938772 400.1194106 64.80995186 393.16015625 66.5078125 C392.15726563 66.69601563 391.154375 66.88421875 390.12109375 67.078125 C381.04269648 69.02545493 373.22848087 73.05632305 365.16015625 77.5078125 C364.16757812 78.054375 363.175 78.6009375 362.15234375 79.1640625 C354.20345139 83.89168361 347.75005756 90.09508098 341.16015625 96.5078125 C340.66451172 96.98299316 340.16886719 97.45817383 339.65820312 97.94775391 C333.44769413 103.90541244 327.82462567 110.12599262 322.4765625 116.86181641 C319.80013901 120.2083385 317.07116331 123.51209147 314.34765625 126.8203125 C313.74953125 127.54694092 313.15140625 128.27356934 312.53515625 129.0222168 C307.26517828 135.40879974 301.92388363 141.73008642 296.49023438 147.97802734 C295.25634255 149.39718413 294.02830963 150.82142919 292.80078125 152.24609375 C273.98094884 173.70203744 249.9702575 188.91856752 221.3046875 192.24609375 C215.93316927 192.58529424 210.54237374 192.5078125 205.16015625 192.5078125 C205.16015625 205.7078125 205.16015625 218.9078125 205.16015625 232.5078125 C206.48015625 232.8378125 207.80015625 233.1678125 209.16015625 233.5078125 C211.82398702 236.09764797 213.02062956 237.77917314 213.72265625 241.4453125 C212.9360567 245.72791005 211.19128752 247.40451144 208.16015625 250.5078125 C205.2571982 251.95929153 203.38753846 251.88020275 200.16015625 251.5078125 C197.23077971 249.69471108 194.72367676 247.63485351 193.16015625 244.5078125 C192.76019062 241.57473124 192.62550014 239.43383688 194.13671875 236.81640625 C196.72049288 233.52724593 198.02539462 232.54150291 202.16015625 231.5078125 C202.16015625 218.6378125 202.16015625 205.7678125 202.16015625 192.5078125 C199.19015625 192.5078125 196.22015625 192.5078125 193.16015625 192.5078125 C189.76474738 192.08709857 186.48473846 191.31114673 183.16015625 190.5078125 C182.25096436 190.28851074 181.34177246 190.06920898 180.4050293 189.84326172 C167.42759669 186.50908944 155.71784046 180.76873734 145.16015625 172.5078125 C144.05800781 171.70730469 144.05800781 171.70730469 142.93359375 170.890625 C130.15079496 161.27146203 118.98574213 149.06179786 109.16015625 136.5078125 C106.88225068 133.70478899 104.58415885 130.91854364 102.28515625 128.1328125 C101.38120117 127.03610229 101.38120117 127.03610229 100.45898438 125.91723633 C95.08165745 119.39933021 89.69155825 112.89587475 84.16015625 106.5078125 C83.7213916 105.99911621 83.28262695 105.49041992 82.83056641 104.96630859 C64.544301 83.91808993 41.27411515 68.30391939 13.16015625 64.5078125 C8.57306654 64.21551474 4.00560467 64.17373762 -0.58984375 64.1953125 C-1.82613525 64.20022705 -3.06242676 64.2051416 -4.33618164 64.21020508 C-28.59454178 64.52143478 -50.80535258 73.28993431 -68.83984375 89.5078125 C-70.30357422 90.79171875 -70.30357422 90.79171875 -71.796875 92.1015625 C-81.78736094 100.96341614 -90.54433268 110.6561925 -98.70629883 121.21264648 C-105.71840054 130.27468976 -113.23098003 138.94357576 -120.83984375 147.5078125 C-121.55914062 148.31992188 -122.2784375 149.13203125 -123.01953125 149.96875 C-125.27556445 152.49824177 -127.55048922 155.00846322 -129.83984375 157.5078125 C-130.3915625 158.11496094 -130.94328125 158.72210938 -131.51171875 159.34765625 C-148.24289316 176.94852042 -172.53701732 189.63836431 -196.83984375 191.5078125 C-200.79984375 191.5078125 -204.75984375 191.5078125 -208.83984375 191.5078125 C-208.83984375 204.7078125 -208.83984375 217.9078125 -208.83984375 231.5078125 C-207.51984375 231.8378125 -206.19984375 232.1678125 -204.83984375 232.5078125 C-201.99507655 235.04778322 -201.83001111 236.59630625 -201.40234375 240.4453125 C-201.54430025 243.37180035 -201.94688128 244.72654136 -203.27734375 247.4453125 C-206.89886351 250.36019426 -210.23390753 250.95116465 -214.83984375 250.5078125 C-217.76127792 248.74277936 -219.31908192 247.54933615 -220.83984375 244.5078125 C-221.41370135 237.5067498 -221.41370135 237.5067498 -219.15234375 233.5703125 C-216.83984375 231.5078125 -216.83984375 231.5078125 -211.83984375 230.5078125 C-211.83984375 217.6378125 -211.83984375 204.7678125 -211.83984375 191.5078125 C-215.79984375 191.5078125 -219.75984375 191.5078125 -223.83984375 191.5078125 C-226.68582771 191.09088491 -229.26905984 190.64747759 -232.02734375 189.9453125 C-232.73584473 189.77040283 -233.4443457 189.59549316 -234.17431641 189.4152832 C-260.14751417 182.62585841 -281.90269234 166.03208987 -298.83984375 145.5078125 C-300.11949532 144.01623125 -301.39915641 142.52465816 -302.67895508 141.03320312 C-307.00476388 135.97307724 -311.1946662 130.82830632 -315.27734375 125.5703125 C-320.48914798 118.86245799 -325.96429953 112.40875278 -331.54296875 106.00439453 C-332.66329024 104.71155365 -333.76863661 103.40576405 -334.87109375 102.09765625 C-338.83897307 97.41736223 -343.13159835 93.43412315 -347.83984375 89.5078125 C-348.65195312 88.79625 -349.4640625 88.0846875 -350.30078125 87.3515625 C-369.50150662 70.90988565 -391.74408523 63.62919462 -416.83984375 62.5078125 C-416.83984375 61.5178125 -416.83984375 60.5278125 -416.83984375 59.5078125 C-388.38125337 58.14543317 -363.92313625 69.887235 -342.90234375 88.6953125 C-333.42153494 97.48005406 -324.81088678 107.00837197 -316.93774414 117.25048828 C-313.17666712 122.13544754 -309.2145888 126.8168062 -305.17285156 131.47094727 C-302.20095829 134.8982423 -299.33681024 138.38208671 -296.52734375 141.9453125 C-277.55843471 165.15232014 -253.28300373 183.4684145 -222.8203125 187.1875 C-193.14220805 189.57572823 -165.2190747 183.08357604 -142.14453125 163.5859375 C-140.5989851 162.1923264 -139.10297942 160.74189617 -137.66015625 159.2421875 C-135.83984375 157.5078125 -135.83984375 157.5078125 -133.83984375 157.5078125 C-133.49759766 156.66863281 -133.49759766 156.66863281 -133.1484375 155.8125 C-131.47684609 152.86850319 -129.36437665 150.95708459 -126.90234375 148.6328125 C-122.1567305 144.0360628 -118.05540612 139.15862288 -114.04174805 133.91918945 C-110.24664408 128.97674412 -106.2534976 124.24170615 -102.16674805 119.53881836 C-99.2523552 116.17902096 -96.45480223 112.76303282 -93.71484375 109.2578125 C-83.19663714 96.37253217 -71.13640271 84.14114897 -56.83984375 75.5078125 C-56.18693359 75.11271484 -55.53402344 74.71761719 -54.86132812 74.31054688 C-38.49173444 64.61863447 -22.96640542 60.5078125 -3.83984375 60.5078125 C-3.83984375 46.9778125 -3.83984375 33.4478125 -3.83984375 19.5078125 C-5.48984375 18.8478125 -7.13984375 18.1878125 -8.83984375 17.5078125 C-11.43679657 15.08995987 -11.81464735 13.67788819 -12.33984375 10.1328125 C-11.30559608 2.63451693 -7.31057404 -0.56141303 0 0 Z " fill="#76BFD9" transform="translate(450.83984375,32.4921875)"/>
<path d="M0 0 C28.45859038 -1.36237933 52.9167075 10.3794225 73.9375 29.1875 C83.41830881 37.97224156 92.02895697 47.50055947 99.90209961 57.74267578 C103.66317663 62.62763504 107.62525495 67.3089937 111.66699219 71.96313477 C114.63888546 75.3904298 117.50303351 78.87427421 120.3125 82.4375 C139.28140904 105.64450764 163.55684002 123.960602 194.01953125 127.6796875 C223.6976357 130.06791573 251.62076905 123.57576354 274.6953125 104.078125 C276.24085865 102.6845139 277.73686433 101.23408367 279.1796875 99.734375 C281 98 281 98 283 98 C283.34224609 97.16082031 283.34224609 97.16082031 283.69140625 96.3046875 C285.36299766 93.36069069 287.4754671 91.44927209 289.9375 89.125 C294.68150865 84.52980457 298.78322859 79.65501533 302.79370117 74.41577148 C306.61868281 69.43153977 310.6551049 64.66686999 314.78076172 59.92993164 C318.25893788 55.92022411 321.50974108 51.79807227 324.59765625 47.4765625 C325.29181641 46.74566406 325.29181641 46.74566406 326 46 C326.99 46 327.98 46 329 46 C328.12402465 50.55408691 325.45271973 53.25596044 322.4375 56.625 C321.33468013 57.88301344 320.23312051 59.14213276 319.1328125 60.40234375 C318.59430664 61.01706543 318.05580078 61.63178711 317.50097656 62.26513672 C315.54474134 64.52619845 313.67002531 66.84491241 311.8125 69.1875 C311.18214844 69.9815625 310.55179687 70.775625 309.90234375 71.59375 C308.60182371 73.23876097 307.3023945 74.88463476 306.00390625 76.53125 C284.34221944 103.55867574 259.16078963 126.35665272 223.8125 131.75 C218.55230502 132.09493082 213.27149205 132 208 132 C208 145.2 208 158.4 208 172 C209.32 172.33 210.64 172.66 212 173 C214.8447672 175.53997072 215.00983264 177.08849375 215.4375 180.9375 C215.2955435 183.86398785 214.89296247 185.21872886 213.5625 187.9375 C209.94098024 190.85238176 206.60593622 191.44335215 202 191 C199.07856583 189.23496686 197.52076183 188.04152365 196 185 C195.4261424 177.9989373 195.4261424 177.9989373 197.6875 174.0625 C200 172 200 172 205 171 C205 158.13 205 145.26 205 132 C201.04 132 197.08 132 193 132 C190.15401604 131.58307241 187.57078391 131.13966509 184.8125 130.4375 C184.10399902 130.26259033 183.39549805 130.08768066 182.66552734 129.9074707 C156.69232958 123.11804591 134.93715141 106.52427737 118 86 C116.72034843 84.50841875 115.44068734 83.01684566 114.16088867 81.52539062 C109.83507987 76.46526474 105.64517755 71.32049382 101.5625 66.0625 C96.35069577 59.35464549 90.87554422 52.90094028 85.296875 46.49658203 C84.17655351 45.20374115 83.07120714 43.89795155 81.96875 42.58984375 C78.00087068 37.90954973 73.7082454 33.92631065 69 30 C68.18789062 29.2884375 67.37578125 28.576875 66.5390625 27.84375 C47.33833713 11.40207315 25.09575852 4.12138212 0 3 C0 2.01 0 1.02 0 0 Z " fill="#448AAA" transform="translate(34,92)"/>
<path d="M0 0 C3.73716178 0.87853713 5.13010387 2.29902003 7.16015625 5.5078125 C7.90764483 8.68751391 7.99086923 11.33964507 7.16015625 14.5078125 C5.34886976 16.89166372 3.77143336 17.88882069 1.16015625 19.5078125 C0.50015625 19.5078125 -0.15984375 19.5078125 -0.83984375 19.5078125 C-0.83984375 33.0378125 -0.83984375 46.5678125 -0.83984375 60.5078125 C3.12015625 60.5078125 7.08015625 60.5078125 11.16015625 60.5078125 C43.64352553 62.80115891 68.01644315 82.45268719 89.16015625 105.5078125 C92.10693101 108.93842452 94.8519991 112.50574564 97.56640625 116.12109375 C100.83959929 120.4679856 104.42291276 124.54386378 108.01513672 128.62792969 C111.32965246 132.42735738 114.28106345 136.36715359 117.16015625 140.5078125 C115.84015625 140.8378125 114.52015625 141.1678125 113.16015625 141.5078125 C111.84765625 139.90364583 110.53515625 138.29947917 109.22265625 136.6953125 C107.98322266 135.18130859 107.98322266 135.18130859 106.71875 133.63671875 C105.12460791 131.68858951 103.53383256 129.73788725 101.9453125 127.78515625 C96.10640799 120.61586843 90.20492733 113.50446617 84.16015625 106.5078125 C83.49113281 105.73171631 83.49113281 105.73171631 82.80859375 104.93994141 C64.53034126 83.90258136 41.25786002 68.30172453 13.16015625 64.5078125 C8.57306654 64.21551474 4.00560467 64.17373762 -0.58984375 64.1953125 C-1.82613525 64.20022705 -3.06242676 64.2051416 -4.33618164 64.21020508 C-28.58700869 64.52133813 -50.81476516 73.28524177 -68.83984375 89.5078125 C-69.34676758 89.95592285 -69.85369141 90.4040332 -70.37597656 90.86572266 C-76.27496167 96.08100277 -81.90765868 101.34258116 -86.83984375 107.5078125 C-87.16984375 106.8478125 -87.49984375 106.1878125 -87.83984375 105.5078125 C-88.49984375 105.1778125 -89.15984375 104.8478125 -89.83984375 104.5078125 C-69.02053123 82.82019372 -69.02053123 82.82019372 -56.83984375 75.5078125 C-56.18838379 75.11416504 -55.53692383 74.72051758 -54.86572266 74.31494141 C-38.49399548 64.62018958 -22.9702465 60.5078125 -3.83984375 60.5078125 C-3.83984375 46.9778125 -3.83984375 33.4478125 -3.83984375 19.5078125 C-5.48984375 18.8478125 -7.13984375 18.1878125 -8.83984375 17.5078125 C-11.43679657 15.08995987 -11.81464735 13.67788819 -12.33984375 10.1328125 C-11.30559608 2.63451693 -7.31057404 -0.56141303 0 0 Z " fill="#76BFD8" transform="translate(450.83984375,32.4921875)"/>
<path d="M0 0 C0.99 0 1.98 0 3 0 C2.40791545 3.83529398 0.66121701 5.94219677 -1.8125 8.875 C-2.62332031 9.84050781 -3.43414063 10.80601562 -4.26953125 11.80078125 C-5.17922467 12.86758235 -6.08940103 13.93397176 -7 15 C-7.98317295 16.16007148 -8.96624318 17.32023002 -9.94921875 18.48046875 C-12.9448361 22.00557545 -15.96902084 25.50529887 -19 29 C-20.17755859 30.36705078 -20.17755859 30.36705078 -21.37890625 31.76171875 C-40.19698294 53.20557358 -64.20063452 68.41200124 -92.85546875 71.73828125 C-98.22698698 72.07748174 -103.61778251 72 -109 72 C-109 85.2 -109 98.4 -109 112 C-107.02 112.495 -107.02 112.495 -105 113 C-102.33616923 115.58983547 -101.13952669 117.27136064 -100.4375 120.9375 C-101.22409955 125.22009755 -102.96886873 126.89669894 -106 130 C-108.90295805 131.45147903 -110.77261779 131.37239025 -114 131 C-116.92937654 129.18689858 -119.43647949 127.12704101 -121 124 C-121.39996563 121.06691874 -121.53465611 118.92602438 -120.0234375 116.30859375 C-117.43966337 113.01943343 -116.13476163 112.03369041 -112 111 C-112 98.13 -112 85.26 -112 72 C-114.97 72 -117.94 72 -121 72 C-124.39540887 71.57928607 -127.67541779 70.80333423 -131 70 C-132.36378784 69.67104736 -132.36378784 69.67104736 -133.75512695 69.33544922 C-146.73255956 66.00127694 -158.44231579 60.26092484 -169 52 C-169.73476563 51.46632812 -170.46953125 50.93265625 -171.2265625 50.3828125 C-177.23599129 45.86066709 -182.54543965 40.66229356 -187.875 35.375 C-188.98210327 34.28179443 -188.98210327 34.28179443 -190.11157227 33.16650391 C-193.9225959 29.33320891 -197.20774296 25.63426954 -200 21 C-196 21 -196 21 -194.28344727 22.38598633 C-193.71682373 23.02818115 -193.1502002 23.67037598 -192.56640625 24.33203125 C-191.92421143 25.04302979 -191.2820166 25.75402832 -190.62036133 26.48657227 C-189.60171997 27.63790649 -189.60171997 27.63790649 -188.5625 28.8125 C-168.85390229 50.36996787 -144.11415549 66.97670086 -114.15625 68.34375 C-83.96676078 69.09824618 -57.44185761 61.10076553 -35.21166992 40.10620117 C-33.80055864 38.74491354 -32.40015895 37.37255018 -31 36 C-30.12601563 35.1646875 -29.25203125 34.329375 -28.3515625 33.46875 C-23.3136806 28.57037868 -18.76211131 23.44193276 -14.37890625 17.953125 C-11.17870823 13.98046538 -7.86474855 10.10872271 -4.54125977 6.23901367 C-2.00563515 3.30214021 -2.00563515 3.30214021 0 0 Z " fill="#4188A8" transform="translate(765,153)"/>
<path d="M0 0 C0.99 0 1.98 0 3 0 C2.40791545 3.83529398 0.66121701 5.94219677 -1.8125 8.875 C-2.62332031 9.84050781 -3.43414063 10.80601562 -4.26953125 11.80078125 C-5.17922467 12.86758235 -6.08940103 13.93397176 -7 15 C-7.98317295 16.16007148 -8.96624318 17.32023002 -9.94921875 18.48046875 C-12.9448361 22.00557545 -15.96902084 25.50529887 -19 29 C-19.78503906 29.91136719 -20.57007813 30.82273438 -21.37890625 31.76171875 C-35.18060298 47.48923363 -52.41158257 61.60531341 -73 67 C-72.8828125 65.1640625 -72.8828125 65.1640625 -72 63 C-69.3671875 61.6484375 -69.3671875 61.6484375 -65.875 60.375 C-52.26680176 55.00315758 -41.3553758 46.15118529 -31 36 C-30.12601563 35.1646875 -29.25203125 34.329375 -28.3515625 33.46875 C-23.3136806 28.57037868 -18.76211131 23.44193276 -14.37890625 17.953125 C-11.17870823 13.98046538 -7.86474855 10.10872271 -4.54125977 6.23901367 C-2.00563515 3.30214021 -2.00563515 3.30214021 0 0 Z " fill="#458AAA" transform="translate(765,153)"/>
<path d="M0 0 C0.99 0 1.98 0 3 0 C2.12402465 4.55408691 -0.54728027 7.25596044 -3.5625 10.625 C-4.66531987 11.88301344 -5.76687949 13.14213276 -6.8671875 14.40234375 C-7.40569336 15.01706543 -7.94419922 15.63178711 -8.49902344 16.26513672 C-10.45525866 18.52619845 -12.32997469 20.84491241 -14.1875 23.1875 C-14.81785156 23.9815625 -15.44820313 24.775625 -16.09765625 25.59375 C-17.39817629 27.23876097 -18.6976055 28.88463476 -19.99609375 30.53125 C-29.68877118 42.62486587 -40.29052589 53.84382347 -52 64 C-52.99 63.67 -53.98 63.34 -55 63 C-53.38150935 61.16053461 -51.75581169 59.32848583 -50.125 57.5 C-49.66480469 56.97535156 -49.20460938 56.45070312 -48.73046875 55.91015625 C-47.52827924 54.56858245 -46.26754054 53.28000815 -45 52 C-44.34 52 -43.68 52 -43 52 C-42.77183594 51.44054687 -42.54367187 50.88109375 -42.30859375 50.3046875 C-40.63700234 47.36069069 -38.5245329 45.44927209 -36.0625 43.125 C-31.31849135 38.52980457 -27.21677141 33.65501533 -23.20629883 28.41577148 C-19.38131719 23.43153977 -15.3448951 18.66686999 -11.21923828 13.92993164 C-7.74106212 9.92022411 -4.49025892 5.79807227 -1.40234375 1.4765625 C-0.93957031 0.98929688 -0.47679687 0.50203125 0 0 Z " fill="#458AAA" transform="translate(360,138)"/>
<path d="M0 0 C1.98 0 3.96 0 6 0 C6 4.95 6 9.9 6 15 C6.99 15 7.98 15 9 15 C9 16.32 9 17.64 9 19 C8.01 19 7.02 19 6 19 C6 20.32 6 21.64 6 23 C4.35 23 2.7 23 1 23 C1 21.68 1 20.36 1 19 C-2.63 19 -6.26 19 -10 19 C-9.52323815 13.85722468 -7.69739087 10.29888466 -4.8125 6.125 C-4.43802734 5.53203125 -4.06355469 4.9390625 -3.67773438 4.328125 C-2.51953125 2.6328125 -2.51953125 2.6328125 0 0 Z " fill="#70BCD7" transform="translate(871,198)"/>
<path d="M0 0 C2.99052865 0.09260289 4.05183828 0.3303892 6.6875 1.9375 C8.125 4.375 8.125 4.375 8.3125 7.625 C6.7183004 12.65931453 3.80070073 15.68010501 0.125 19.375 C3.095 19.705 6.065 20.035 9.125 20.375 C9.125 21.695 9.125 23.015 9.125 24.375 C3.515 24.375 -2.095 24.375 -7.875 24.375 C-6.75484306 18.7742153 -6.75484306 18.7742153 -3.4375 16.25 C-0.93641627 14.31805641 0.31891738 13.08412393 2.125 10.375 C2.29213569 7.74968476 2.29213569 7.74968476 2.125 5.375 C1.403125 5.519375 0.68125 5.66375 -0.0625 5.8125 C-3.96875 6.59375 -3.96875 6.59375 -7.875 7.375 C-5.34859155 0.51760563 -5.34859155 0.51760563 0 0 Z " fill="#77BFD9" transform="translate(449.875,184.625)"/>
<path d="M0 0 C2 1.125 2 1.125 3 3 C3.1875 5.9375 3.1875 5.9375 3 9 C3 10.32 3 11.64 3 13 C3.33 13.33 3.66 13.66 4 14 C3.76749436 20.27765237 3.76749436 20.27765237 0.875 23 C-2.85738301 24.29822018 -5.19738855 23.98586223 -9 23 C-10.9375 21.6875 -10.9375 21.6875 -12 20 C-12 18.68 -12 17.36 -12 16 C-10.68 16 -9.36 16 -8 16 C-7.34 16.99 -6.68 17.98 -6 19 C-4.68 19 -3.36 19 -2 19 C-2 17.35 -2 15.7 -2 14 C-3.65 13.67 -5.3 13.34 -7 13 C-7 11.68 -7 10.36 -7 9 C-5.35 8.67 -3.7 8.34 -2 8 C-2.33 6.68 -2.66 5.36 -3 4 C-3.99 4 -4.98 4 -6 4 C-6.99 5.485 -6.99 5.485 -8 7 C-9.32 7 -10.64 7 -12 7 C-11.6875 4.625 -11.6875 4.625 -11 2 C-7.18977687 -0.54014875 -4.46529184 -0.58606955 0 0 Z " fill="#4188A9" transform="translate(662,105)"/>
<path d="M0 0 C0.66 0.33 1.32 0.66 2 1 C-2.40964463 7.12450643 -7.43944419 12.47699014 -12.8125 17.75 C-17.60442376 22.45941972 -21.9076933 27.3370642 -26.0625 32.625 C-27.92222708 34.90466546 -29.88368219 36.95926497 -32 39 C-32 38.34 -32 37.68 -32 37 C-32.66 36.67 -33.32 36.34 -34 36 C-30.22548463 31.62459578 -26.44303701 27.25631101 -22.64941406 22.89746094 C-21.28072389 21.32294051 -19.91705315 19.74405845 -18.5546875 18.1640625 C-12.80489077 11.60802121 -6.50447346 5.78909144 0 0 Z " fill="#77BFD8" transform="translate(800,116)"/>
<path d="M0 0 C1.9375 1.6875 1.9375 1.6875 3 4 C2.92897215 7.4803645 2.61415498 9.29485909 0.3125 11.9375 C-2.89943934 13.41325591 -4.66474802 13.06444212 -8 12 C-9.9375 10.3125 -9.9375 10.3125 -11 8 C-10.92897215 4.5196355 -10.61415498 2.70514091 -8.3125 0.0625 C-5.10056066 -1.41325591 -3.33525198 -1.06444212 0 0 Z " fill="#F3F8F9" transform="translate(658,268)"/>
<path d="M0 0 C0.66 0.33 1.32 0.66 2 1 C0.61965402 4.32409847 -0.66642526 5.69158775 -3.75 7.5 C-13.41134816 13.64386703 -22.13135099 21.71599709 -30 30 C-32 32 -32 32 -34 34 C-34 33.34 -34 32.68 -34 32 C-34.66 31.67 -35.32 31.34 -36 31 C-25.6674046 20.23646543 -15.62201708 10.05387427 -3 2 C-2.01 1.34 -1.02 0.68 0 0 Z " fill="#74BED8" transform="translate(397,106)"/>
<path d="M0 0 C3.375 0.9375 3.375 0.9375 5.375 3.9375 C5.83943597 7.5755818 5.80343764 9.29484354 3.75 12.375 C1.375 13.9375 1.375 13.9375 -1.6875 13.9375 C-5.04758858 12.79364006 -6.04964938 12.08820125 -7.625 8.9375 C-8.20496839 5.6233949 -7.92009872 4.38605005 -6.0625 1.5625 C-3.625 -0.0625 -3.625 -0.0625 0 0 Z " fill="#F6F9FB" transform="translate(240.625,266.0625)"/>
<path d="M0 0 C1.9375 1.125 1.9375 1.125 3 3 C3.53852618 6.61581862 3.42236225 8.34111489 1.4375 11.4375 C-1 13 -1 13 -4.625 12.9375 C-8 12 -8 12 -10 9 C-10.32162076 5.9124407 -10.48724515 3.85984439 -8.9375 1.125 C-5.8930714 -0.64273274 -3.4368988 -0.36823916 0 0 Z " fill="#FAFCFD" transform="translate(874,36)"/>
<path d="M0 0 C3.5625 0.3125 3.5625 0.3125 5.5 1.375 C7.19585287 4.46743758 6.99310657 6.86764741 6.5625 10.3125 C5 12.3125 5 12.3125 2.5625 13.3125 C-1.0625 13.1875 -1.0625 13.1875 -4.4375 12.3125 C-6.4375 9.3125 -6.4375 9.3125 -6.1875 5.75 C-5.19120735 1.18365869 -4.69283396 0.42662127 0 0 Z " fill="#FAFCFD" transform="translate(448.4375,35.6875)"/>
<path d="M0 0 C0 7.92 0 15.84 0 24 C-1.65 24 -3.3 24 -5 24 C-5 18.06 -5 12.12 -5 6 C-6.32 6 -7.64 6 -9 6 C-8.75 4.125 -8.75 4.125 -8 2 C-5.06004981 -0.02755186 -3.72295997 0 0 0 Z " fill="#448AAA" transform="translate(242,92)"/>
<path d="M0 0 C0.33 0 0.66 0 1 0 C1 3.3 1 6.6 1 10 C-1.31 10 -3.62 10 -6 10 C-5.18957164 8.51969728 -4.37659652 7.04078858 -3.5625 5.5625 C-2.88380859 4.32693359 -2.88380859 4.32693359 -2.19140625 3.06640625 C-1 1 -1 1 0 0 Z " fill="#EBF5F9" transform="translate(872,203)"/>
<path d="M0 0 C0 3 0 3 -1.86328125 5.0859375 C-2.67152344 5.84132812 -3.47976563 6.59671875 -4.3125 7.375 C-7.51806664 10.37925087 -9.89009916 13.13526254 -12 17 C-12.66 16.67 -13.32 16.34 -14 16 C-5.92255125 4.29384966 -5.92255125 4.29384966 0 0 Z " fill="#8AC8DE" transform="translate(834,163)"/>
</svg>
